<svg width="280" height="69" viewBox="0 0 280 69" fill="none" xmlns="http://www.w3.org/2000/svg">
<g clip-path="url(#clip0_64_167)">
<path d="M81.7652 13.5176C71.7786 3.58088 56.0916 11.0394 56.4195 24.8299C56.617 17.6797 62.0133 11.0947 69.3136 10.5809C73.3667 10.3002 77.4 12.0473 80.0033 15.1382C87.1338 23.4386 81.8008 37.6362 70.2775 37.5097H15.8292C4.30988 37.6362 -0.632054 23.4425 6.4984 15.1382C9.10171 12.0473 13.139 10.3002 17.1882 10.5809C24.4924 11.0947 29.8847 17.6797 30.0822 24.8299C30.4141 11.0433 14.7231 3.57693 4.73653 13.5176C-2.26357 20.6164 -1.37868 32.8655 6.52606 38.9445C9.16887 40.9919 12.4635 42.1777 15.8253 42.2963C15.8253 42.2963 70.5264 42.2844 70.6528 42.2765H70.6725C73.9237 42.0829 77.4316 40.9129 79.9717 38.9445C87.8804 32.8694 88.7653 20.6164 81.7613 13.5176H81.7652Z" fill="white"/>
<path d="M53.8009 2.97624C48.7602 0.0276263 42.8741 -0.762888 37.225 0.754899C31.7103 2.23711 27.3095 5.33593 24.0781 10.245L24.6983 10.7312C31.418 3.53356 39.8481 0.893239 47.9424 2.97624H47.9503C52.6908 4.11063 57.1982 6.86162 61.3461 11.1581L61.9584 10.664C59.8292 7.47822 57.0086 4.81814 53.8048 2.9802L53.8009 2.97624Z" fill="white"/>
<path d="M29.5407 50.2728C32.14 55.1146 33.258 62.5692 28.9284 66.8498C25.6298 69.8814 19.6568 69.8538 17.1167 65.8301C16.0461 64.2569 15.6392 62.3162 15.9948 60.4111C16.4728 56.3874 20.5812 54.1146 23.7573 52.5692C25.531 51.7075 27.3284 50.9447 29.1851 50.2688C26.9887 52.2095 24.6659 53.9407 22.4932 55.8577C20.9802 57.2135 19.3803 58.7233 19.3526 60.7945C19.3328 61.1305 19.3447 61.4941 19.3684 61.838C19.5857 63.0316 20.5298 64.3399 21.6596 64.7787C23.1489 65.3874 25.1676 64.9842 26.4673 64.0356C27.3521 63.336 27.9012 62.3874 28.3634 61.2767C29.6789 57.8973 29.6552 53.9921 29.5407 50.2728Z" fill="white"/>
<path d="M51.1301 50.2727C53.1567 53.9921 54.0337 59.5375 50.7193 62.8735C47.6419 65.6324 42.4314 64.9486 41.0171 60.7905C40.5273 59.4822 40.6616 57.8972 41.187 56.581C42.1588 54.2529 44.7028 52.9921 46.7333 51.9802C48.0804 51.3399 49.4512 50.7707 50.8576 50.2727C49.9055 51.1304 48.4676 52.3043 47.4681 53.1344C45.9788 54.4624 44.1853 55.6245 43.6007 57.4545C43.4743 57.9446 43.4664 58.5059 43.5059 59.0237C43.6757 59.8893 44.375 60.8537 45.1966 61.1699C46.5279 61.6798 48.3649 61.2332 49.2892 60.0948C51.2881 57.3636 51.1341 53.6205 51.1222 50.2727H51.1301Z" fill="white"/>
<path d="M68.8197 50.2727C70.2655 52.7391 70.862 56.4427 68.638 58.7035C66.5838 60.6008 62.9336 60.0988 62.0132 57.2767C61.784 56.6996 61.7643 55.9644 61.8789 55.328C62.1435 53.2411 64.2412 52.1027 65.8806 51.3557C66.7813 50.9446 67.6938 50.585 68.638 50.2767C67.9151 50.9565 67.1645 51.5889 66.4297 52.2213C65.2525 53.3083 63.6842 54.2767 63.8975 55.9881C64.1859 57.4071 65.5251 57.7905 66.7773 57.2371C68.8394 56.1541 68.7446 52.4031 68.8118 50.2806L68.8197 50.2727Z" fill="white"/>
<path d="M115.189 42.1897C114.948 42.4071 114.525 42.5889 113.925 42.7312C113.325 42.8775 112.696 42.9486 112.049 42.9486C111.231 42.9486 110.603 42.8419 110.172 42.6245C109.741 42.4071 109.402 42.0356 109.161 41.5059L106.49 35.5099C106.079 34.6205 105.649 34.0158 105.191 33.7036C104.732 33.3913 104.061 33.2332 103.168 33.2332H101.292V42.6601H95.7334V17.3755H104.326C107.549 17.3755 110.03 18.0632 111.76 19.4348C113.494 20.8063 114.359 22.7707 114.359 25.3241C114.359 26.8893 113.98 28.2332 113.222 29.3518C112.463 30.4704 111.361 31.3202 109.919 31.8972C110.567 32.5731 111.112 33.3913 111.543 34.3518L115.189 42.1897ZM103.962 29.332C105.645 29.332 106.862 29.0198 107.608 28.3913C108.355 27.7668 108.726 26.7431 108.726 25.3202C108.726 23.8972 108.351 22.8696 107.608 22.2332C106.862 21.5968 105.645 21.2767 103.962 21.2767H101.292V29.332H103.962Z" fill="white"/>
<path d="M132.914 36.4111H123.094C122.758 38 122.406 40.083 122.047 42.6601H116.631C117.543 33.9209 120.407 25.4901 125.223 17.3755H130.817C135.605 25.4427 138.457 33.8696 139.373 42.6601H133.957C133.598 40.083 133.246 38 132.91 36.4111H132.914ZM132.049 32.4387C131.038 28.4664 129.691 24.8182 128.004 21.4941C126.321 24.8182 124.97 28.4664 123.963 32.4387H132.049Z" fill="white"/>
<path d="M141.874 17.3755H147.432V42.6601H141.874V17.3755Z" fill="white"/>
<path d="M171.016 40.3478C171.064 41.0237 171.088 41.4664 171.088 41.6838C171.088 42.336 170.775 42.6601 170.147 42.6601H165.454V41.4308C165.454 40.2253 164.984 38.8893 164.048 37.4229L156.068 25.1423V42.6601H150.581V17.3755H155.563C155.875 17.3755 156.135 17.419 156.337 17.502C156.542 17.585 156.74 17.7866 156.933 18.0988L165.454 31.0672V17.3794H170.941V37.7154C170.941 38.4624 170.965 39.3399 171.012 40.3518L171.016 40.3478Z" fill="white"/>
<path d="M187.11 42.7747C186.814 42.9368 186.49 43.0198 186.15 43.0198C185.881 43.0198 185.66 42.9684 185.49 42.8617C185.32 42.7589 185.166 42.585 185.032 42.3478L182.484 37.9644C182.125 37.3399 181.69 36.8933 181.176 36.6324C180.663 36.3716 179.964 36.2411 179.087 36.2411H177.566V42.838H175.958V27.1858H181.03C182.832 27.1858 184.25 27.585 185.277 28.3834C186.304 29.1818 186.818 30.2886 186.818 31.7036C186.818 32.8222 186.446 33.7866 185.7 34.6008C184.953 35.415 183.985 35.917 182.796 36.1107C183.227 36.4704 183.614 36.9249 183.958 37.4743L187.11 42.7747ZM180.92 34.8577C182.259 34.8577 183.302 34.581 184.037 34.0316C184.775 33.4783 185.143 32.7036 185.143 31.7075C185.143 30.7115 184.795 29.9012 184.104 29.3716C183.412 28.8419 182.385 28.5771 181.03 28.5771H177.566V34.8617H180.92V34.8577Z" fill="white"/>
<path d="M197.8 41.5019C197.8 42.0395 197.721 42.3952 197.567 42.577C197.409 42.7549 197.101 42.8458 196.639 42.8458H188.438V27.1936H197.78V28.5335H190.045V34.1699H196.706V35.5098H190.045V41.5019H197.8Z" fill="white"/>
<path d="M200.759 40.9644C199.59 39.5651 199.005 37.581 199.005 35.0157C199.005 32.4505 199.586 30.4505 200.747 29.0553C201.908 27.66 203.564 26.9644 205.709 26.9644C206.574 26.9644 207.376 27.1106 208.122 27.3991C208.865 27.6916 209.509 28.1185 210.046 28.6837C209.955 28.9683 209.829 29.1817 209.667 29.3319C209.501 29.4821 209.315 29.5572 209.11 29.5572C208.905 29.5572 208.707 29.49 208.529 29.3557C207.723 28.7312 206.771 28.4149 205.669 28.4149C204.03 28.4149 202.785 28.9723 201.936 30.0908C201.087 31.2094 200.664 32.8497 200.664 35.0118C200.664 37.1738 201.087 38.7904 201.936 39.909C202.785 41.0276 204.03 41.5849 205.669 41.5849C206.368 41.5849 207 41.49 207.557 41.2924C208.118 41.0987 208.671 40.7786 209.221 40.3319C209.414 40.3478 209.58 40.4268 209.714 40.5651C209.849 40.7074 209.916 40.8814 209.916 41.0908C209.916 41.4347 209.718 41.7549 209.323 42.0513C208.928 42.3478 208.407 42.5928 207.759 42.7786C207.111 42.9644 206.428 43.0592 205.713 43.0592C203.583 43.0592 201.932 42.3596 200.763 40.9565L200.759 40.9644Z" fill="white"/>
<path d="M212.736 40.9644C211.61 39.5652 211.049 37.5494 211.049 34.9249C211.049 32.3004 211.61 30.3913 212.736 29.0197C213.862 27.6482 215.473 26.9604 217.575 26.9604C219.676 26.9604 221.288 27.6482 222.414 29.0197C223.54 30.3913 224.101 32.3597 224.101 34.9249C224.101 37.4901 223.54 39.5612 222.414 40.9644C221.288 42.3676 219.676 43.0672 217.575 43.0672C215.473 43.0672 213.862 42.3676 212.736 40.9644ZM221.221 39.9486C222.039 38.8221 222.45 37.1502 222.45 34.9288C222.45 30.5771 220.826 28.3992 217.579 28.3992C214.332 28.3992 212.708 30.5771 212.708 34.9288C212.708 37.1502 213.119 38.8221 213.937 39.9486C214.754 41.0751 215.971 41.6363 217.579 41.6363C219.187 41.6363 220.403 41.0751 221.221 39.9486Z" fill="white"/>
<path d="M237.063 42.7747C236.767 42.9368 236.443 43.0198 236.103 43.0198C235.835 43.0198 235.613 42.9684 235.443 42.8617C235.274 42.7589 235.12 42.585 234.985 42.3478L232.437 37.9644C232.078 37.3399 231.643 36.8933 231.13 36.6324C230.616 36.3716 229.917 36.2411 229.04 36.2411H227.519V42.838H225.911V27.1858H230.983C232.785 27.1858 234.203 27.585 235.23 28.3834C236.257 29.1818 236.771 30.2886 236.771 31.7036C236.771 32.8222 236.399 33.7866 235.653 34.6008C234.906 35.415 233.938 35.917 232.749 36.1107C233.18 36.4704 233.567 36.9249 233.911 37.4743L237.063 42.7747ZM230.873 34.8577C232.212 34.8577 233.255 34.581 233.99 34.0316C234.728 33.4783 235.096 32.7036 235.096 31.7075C235.096 30.7115 234.748 29.9012 234.057 29.3716C233.366 28.8419 232.338 28.5771 230.983 28.5771H227.519V34.8617H230.873V34.8577Z" fill="white"/>
<path d="M249.135 29.2134C250.379 30.5612 250.999 32.4979 250.999 35.0157C250.999 36.6244 250.711 38.0197 250.138 39.1976C249.565 40.3754 248.736 41.2766 247.657 41.9051C246.575 42.5296 245.291 42.8458 243.802 42.8458H239.176V27.1936H243.802C246.113 27.1936 247.886 27.8695 249.131 29.2173L249.135 29.2134ZM247.938 39.8576C248.878 38.7628 249.344 37.1541 249.344 35.0395C249.344 32.9248 248.886 31.2173 247.969 30.1422C247.053 29.0671 245.662 28.5335 243.802 28.5335H240.784V41.5019H243.802C245.619 41.5019 246.998 40.9525 247.938 39.8576Z" fill="white"/>
<path d="M15.9276 34.4585C11.6414 34.8261 7.40661 32.166 5.69214 28.2293C3.33376 23.087 5.60128 16.6522 10.6301 14.0751C16.69 10.8142 24.5434 14.1344 26.1473 20.8854C26.3882 21.9091 26.4515 22.9605 26.3882 23.9882C25.8352 16.5929 17.9937 11.8893 11.357 15.4348C2.40147 20.6285 5.81066 33.6008 15.9237 34.4546L15.9276 34.4585Z" fill="white"/>
<path d="M59.9079 23.9882C59.5405 19.6997 62.1991 15.4625 66.1337 13.7471C71.2732 11.3874 77.7044 13.6562 80.2801 18.6878C83.5391 24.7511 80.2208 32.6088 73.4735 34.2135C72.4504 34.4546 71.3996 34.5179 70.3725 34.4546C77.7637 33.9013 82.4646 26.0554 78.9211 19.4151C73.7303 10.4546 60.7651 13.8657 59.9118 23.9843L59.9079 23.9882Z" fill="white"/>
</g>
<path d="M253.606 28.9563V21.0529H256.37C256.92 21.0529 257.374 21.1481 257.732 21.3385C258.089 21.5263 258.356 21.7797 258.531 22.0987C258.706 22.4152 258.793 22.7664 258.793 23.1523C258.793 23.4919 258.733 23.7723 258.612 23.9935C258.493 24.2148 258.336 24.3897 258.141 24.5184C257.948 24.647 257.738 24.7422 257.512 24.8039V24.8811C257.754 24.8966 257.997 24.9815 258.241 25.1358C258.486 25.2902 258.69 25.5114 258.855 25.7996C259.019 26.0877 259.102 26.4402 259.102 26.857C259.102 27.2532 259.012 27.6095 258.832 27.9259C258.652 28.2424 258.367 28.4932 257.979 28.6784C257.59 28.8637 257.085 28.9563 256.462 28.9563H253.606ZM254.564 28.1073H256.462C257.087 28.1073 257.531 27.9864 257.794 27.7446C258.059 27.5001 258.191 27.2043 258.191 26.857C258.191 26.5894 258.123 26.3424 257.987 26.116C257.85 25.8871 257.656 25.7044 257.404 25.568C257.152 25.4291 256.853 25.3597 256.508 25.3597H254.564V28.1073ZM254.564 24.5261H256.339C256.627 24.5261 256.887 24.4695 257.118 24.3563C257.352 24.2431 257.538 24.0836 257.674 23.8778C257.813 23.672 257.882 23.4301 257.882 23.1523C257.882 22.8049 257.761 22.5104 257.52 22.2685C257.278 22.0241 256.894 21.9019 256.37 21.9019H254.564V24.5261ZM260.674 28.9563V21.0529H265.444V21.9019H261.631V24.5724H265.197V25.4214H261.631V28.1073H265.506V28.9563H260.674ZM266.737 21.9019V21.0529H272.664V21.9019H270.179V28.9563H269.222V21.9019H266.737ZM273.542 28.9563H272.539L275.441 21.0529H276.429L279.331 28.9563H278.328L275.966 22.3033H275.904L273.542 28.9563ZM273.913 25.869H277.957V26.718H273.913V25.869Z" fill="white"/>
<defs>
<clipPath id="clip0_64_167">
<rect width="251" height="69" fill="white"/>
</clipPath>
</defs>
</svg>
